<svg width="633" height="220" viewBox="0 0 633 220" fill="none" xmlns="http://www.w3.org/2000/svg">
<path d="M83.232 48.96C85.344 50.016 86.544 51.648 86.832 53.856C87.216 56.064 86.688 58.08 85.248 59.904C84.192 61.344 82.8 62.16 81.072 62.352C79.44 62.544 77.808 62.208 76.176 61.344C73.392 59.904 70.464 58.752 67.392 57.888C64.32 57.024 61.056 56.592 57.6 56.592C52.128 56.592 47.184 57.504 42.768 59.328C38.448 61.056 34.704 63.6 31.536 66.96C28.368 70.224 25.92 74.112 24.192 78.624C22.56 83.136 21.744 88.128 21.744 93.6C21.744 99.648 22.656 105.024 24.48 109.728C26.304 114.336 28.8 118.272 31.968 121.536C35.232 124.704 39.024 127.104 43.344 128.736C47.76 130.272 52.512 131.04 57.6 131.04C60.864 131.04 64.032 130.656 67.104 129.888C70.272 129.12 73.248 127.968 76.032 126.432C77.76 125.568 79.44 125.28 81.072 125.568C82.8 125.76 84.192 126.576 85.248 128.016C86.88 130.032 87.456 132.096 86.976 134.208C86.592 136.224 85.392 137.76 83.376 138.816C80.976 140.16 78.336 141.312 75.456 142.272C72.576 143.232 69.648 144 66.672 144.576C63.696 145.152 60.672 145.44 57.6 145.44C50.688 145.44 44.16 144.288 38.016 141.984C31.872 139.68 26.4 136.32 21.6 131.904C16.8 127.488 13.008 122.064 10.224 115.632C7.536 109.2 6.192 101.856 6.192 93.6C6.192 86.208 7.44 79.392 9.936 73.152C12.528 66.816 16.128 61.392 20.736 56.88C25.44 52.272 30.912 48.72 37.152 46.224C43.392 43.632 50.208 42.336 57.6 42.336C62.208 42.336 66.672 42.912 70.992 44.064C75.408 45.216 79.488 46.848 83.232 48.96ZM117.179 136.656C117.179 138.768 116.459 140.544 115.019 141.984C113.675 143.328 111.995 144 109.979 144C107.963 144 106.235 143.328 104.795 141.984C103.451 140.544 102.779 138.768 102.779 136.656V44.784C102.779 42.672 103.499 40.944 104.939 39.6C106.379 38.16 108.107 37.44 110.123 37.44C112.235 37.44 113.915 38.16 115.163 39.6C116.507 40.944 117.179 42.672 117.179 44.784V136.656ZM172.485 145.44C164.517 145.44 157.605 143.808 151.749 140.544C145.893 137.184 141.333 132.624 138.069 126.864C134.901 121.008 133.317 114.336 133.317 106.848C133.317 98.4 134.997 91.2 138.357 85.248C141.813 79.2 146.277 74.592 151.749 71.424C157.221 68.16 163.029 66.528 169.173 66.528C173.877 66.528 178.341 67.488 182.565 69.408C186.789 71.232 190.533 73.824 193.797 77.184C197.157 80.448 199.797 84.336 201.717 88.848C203.637 93.264 204.645 98.112 204.741 103.392C204.645 105.312 203.877 106.896 202.437 108.144C200.997 109.392 199.317 110.016 197.397 110.016H141.381L137.925 97.776H192.069L189.333 100.368V96.768C189.141 93.408 188.037 90.48 186.021 87.984C184.005 85.392 181.509 83.424 178.533 82.08C175.557 80.64 172.437 79.92 169.173 79.92C166.293 79.92 163.509 80.4 160.821 81.36C158.229 82.224 155.877 83.664 153.765 85.68C151.749 87.696 150.117 90.384 148.869 93.744C147.717 97.008 147.141 101.088 147.141 105.984C147.141 111.264 148.245 115.872 150.453 119.808C152.661 123.744 155.637 126.816 159.381 129.024C163.125 131.136 167.253 132.192 171.765 132.192C175.317 132.192 178.245 131.856 180.549 131.184C182.853 130.416 184.773 129.504 186.309 128.448C187.845 127.392 189.189 126.384 190.341 125.424C191.781 124.56 193.221 124.128 194.661 124.128C196.389 124.128 197.829 124.752 198.981 126C200.133 127.152 200.709 128.544 200.709 130.176C200.709 132.288 199.653 134.208 197.541 135.936C194.949 138.432 191.349 140.64 186.741 142.56C182.229 144.48 177.477 145.44 172.485 145.44ZM283.644 67.104C285.756 67.104 287.484 67.824 288.828 69.264C290.172 70.608 290.844 72.336 290.844 74.448V136.656C290.844 138.768 290.172 140.544 288.828 141.984C287.484 143.328 285.756 144 283.644 144C281.628 144 279.9 143.328 278.46 141.984C277.116 140.544 276.444 138.768 276.444 136.656V126.288L279.468 126.72C279.468 128.448 278.748 130.368 277.308 132.48C275.964 134.592 274.092 136.656 271.692 138.672C269.292 140.592 266.46 142.224 263.196 143.568C259.932 144.816 256.428 145.44 252.684 145.44C246.06 145.44 240.108 143.76 234.828 140.4C229.548 136.944 225.372 132.24 222.3 126.288C219.228 120.336 217.692 113.568 217.692 105.984C217.692 98.208 219.228 91.392 222.3 85.536C225.372 79.584 229.5 74.928 234.684 71.568C239.964 68.208 245.82 66.528 252.252 66.528C256.38 66.528 260.172 67.2 263.628 68.544C267.18 69.888 270.252 71.616 272.844 73.728C275.436 75.84 277.404 78.096 278.748 80.496C280.188 82.8 280.908 85.008 280.908 87.12L276.444 87.552V74.448C276.444 72.432 277.116 70.704 278.46 69.264C279.9 67.824 281.628 67.104 283.644 67.104ZM254.268 132.192C258.78 132.192 262.764 131.04 266.22 128.736C269.676 126.432 272.364 123.312 274.284 119.376C276.204 115.344 277.164 110.88 277.164 105.984C277.164 100.992 276.204 96.528 274.284 92.592C272.364 88.656 269.676 85.536 266.22 83.232C262.764 80.928 258.78 79.776 254.268 79.776C249.852 79.776 245.916 80.928 242.46 83.232C239.1 85.536 236.412 88.656 234.396 92.592C232.476 96.528 231.516 100.992 231.516 105.984C231.516 110.88 232.476 115.344 234.396 119.376C236.412 123.312 239.1 126.432 242.46 128.736C245.916 131.04 249.852 132.192 254.268 132.192ZM350.042 66.528C356.858 66.528 362.138 67.968 365.882 70.848C369.626 73.632 372.218 77.424 373.657 82.224C375.194 86.928 375.962 92.208 375.962 98.064V136.656C375.962 138.768 375.242 140.544 373.802 141.984C372.458 143.328 370.778 144 368.762 144C366.65 144 364.922 143.328 363.578 141.984C362.234 140.544 361.562 138.768 361.562 136.656V98.208C361.562 94.752 361.082 91.68 360.122 88.992C359.162 86.208 357.482 84 355.082 82.368C352.778 80.64 349.514 79.776 345.29 79.776C341.354 79.776 337.898 80.64 334.922 82.368C331.946 84 329.594 86.208 327.866 88.992C326.234 91.68 325.418 94.752 325.418 98.208V136.656C325.418 138.768 324.698 140.544 323.258 141.984C321.914 143.328 320.234 144 318.218 144C316.106 144 314.378 143.328 313.034 141.984C311.69 140.544 311.018 138.768 311.018 136.656V75.6C311.018 73.488 311.69 71.76 313.034 70.416C314.378 68.976 316.106 68.256 318.218 68.256C320.234 68.256 321.914 68.976 323.258 70.416C324.698 71.76 325.418 73.488 325.418 75.6V83.664L322.826 85.104C323.498 82.992 324.65 80.88 326.282 78.768C328.01 76.56 330.074 74.544 332.474 72.72C334.874 70.8 337.562 69.312 340.538 68.256C343.514 67.104 346.682 66.528 350.042 66.528ZM440.019 43.2C447.027 43.2 453.219 44.544 458.595 47.232C463.971 49.824 468.435 53.472 471.987 58.176C475.635 62.784 478.371 68.16 480.195 74.304C482.019 80.352 482.931 86.784 482.931 93.6C482.931 102.912 481.299 111.408 478.035 119.088C474.771 126.672 469.971 132.72 463.635 137.232C457.299 141.744 449.427 144 440.019 144H404.883C402.867 144 401.139 143.328 399.699 141.984C398.259 140.544 397.539 138.768 397.539 136.656V50.544C397.539 48.432 398.259 46.704 399.699 45.36C401.139 43.92 402.867 43.2 404.883 43.2H440.019ZM438.579 130.176C445.395 130.176 450.915 128.496 455.139 125.136C459.363 121.776 462.435 117.36 464.355 111.888C466.371 106.32 467.379 100.224 467.379 93.6C467.379 88.704 466.803 84.096 465.651 79.776C464.595 75.36 462.867 71.472 460.467 68.112C458.163 64.656 455.187 61.968 451.539 60.048C447.987 58.032 443.667 57.024 438.579 57.024H411.363L412.659 55.728V131.616L411.795 130.176H438.579ZM506.233 144C504.121 144 502.393 143.328 501.049 141.984C499.705 140.544 499.033 138.768 499.033 136.656V75.6C499.033 73.488 499.705 71.76 501.049 70.416C502.393 68.976 504.121 68.256 506.233 68.256C508.249 68.256 509.929 68.976 511.273 70.416C512.713 71.76 513.433 73.488 513.433 75.6V91.728L511.993 85.536C512.761 82.848 513.913 80.352 515.449 78.048C517.081 75.744 519.001 73.728 521.209 72C523.417 70.272 525.865 68.928 528.553 67.968C531.337 67.008 534.217 66.528 537.193 66.528C539.689 66.528 541.849 67.2 543.673 68.544C545.497 69.888 546.409 71.568 546.409 73.584C546.409 76.176 545.737 78.096 544.393 79.344C543.049 80.496 541.561 81.072 539.929 81.072C538.489 81.072 537.097 80.784 535.753 80.208C534.409 79.536 532.825 79.2 531.001 79.2C528.985 79.2 526.921 79.728 524.809 80.784C522.697 81.84 520.777 83.424 519.049 85.536C517.321 87.552 515.929 89.952 514.873 92.736C513.913 95.52 513.433 98.64 513.433 102.096V136.656C513.433 138.768 512.713 140.544 511.273 141.984C509.929 143.328 508.249 144 506.233 144ZM615.525 67.68C617.637 67.68 619.365 68.4 620.709 69.84C622.053 71.184 622.725 72.912 622.725 75.024V136.944C622.725 145.392 621.093 152.256 617.829 157.536C614.661 162.816 610.341 166.656 604.869 169.056C599.493 171.552 593.397 172.8 586.581 172.8C583.125 172.8 579.669 172.464 576.213 171.792C572.757 171.216 569.925 170.352 567.717 169.2C565.413 168.144 563.781 166.848 562.821 165.312C561.861 163.776 561.717 162.096 562.389 160.272C563.061 157.968 564.213 156.384 565.845 155.52C567.477 154.752 569.157 154.704 570.885 155.376C572.517 156.048 574.677 156.912 577.365 157.968C580.053 159.024 583.125 159.552 586.581 159.552C591.285 159.552 595.269 158.784 598.533 157.248C601.797 155.712 604.245 153.312 605.877 150.048C607.605 146.784 608.469 142.56 608.469 137.376V127.44L610.773 130.896C609.237 134.064 607.221 136.704 604.725 138.816C602.229 140.928 599.253 142.56 595.797 143.712C592.437 144.864 588.693 145.44 584.565 145.44C579.285 145.44 574.725 144.288 570.885 141.984C567.141 139.584 564.261 136.32 562.245 132.192C560.229 127.968 559.221 123.168 559.221 117.792V75.024C559.221 72.912 559.893 71.184 561.237 69.84C562.581 68.4 564.309 67.68 566.421 67.68C568.437 67.68 570.117 68.4 571.461 69.84C572.901 71.184 573.621 72.912 573.621 75.024V113.904C573.621 120.24 575.013 124.896 577.797 127.872C580.581 130.752 584.709 132.192 590.181 132.192C593.829 132.192 596.997 131.424 599.685 129.888C602.373 128.352 604.485 126.24 606.021 123.552C607.557 120.768 608.325 117.552 608.325 113.904V75.024C608.325 72.912 608.997 71.184 610.341 69.84C611.781 68.4 613.509 67.68 615.525 67.68Z" fill="#2C3036"/>
<path d="M18.032 189.6C18.288 189.6 18.512 189.696 18.704 189.888C18.9173 190.08 19.024 190.315 19.024 190.592V211.008C19.0027 211.285 18.8853 211.52 18.672 211.712C18.48 211.904 18.256 212 18 212C17.7013 212 17.456 211.904 17.264 211.712C17.0933 211.52 17.008 211.285 17.008 211.008V190.592C17.008 190.315 17.104 190.08 17.296 189.888C17.488 189.696 17.7333 189.6 18.032 189.6ZM33.04 189.6C33.3387 189.6 33.5733 189.696 33.744 189.888C33.936 190.08 34.032 190.315 34.032 190.592V211.008C34.0107 211.285 33.904 211.52 33.712 211.712C33.5413 211.904 33.3067 212 33.008 212C32.7307 212 32.496 211.904 32.304 211.712C32.112 211.52 32.016 211.285 32.016 211.008V190.592C32.016 190.315 32.112 190.08 32.304 189.888C32.5173 189.696 32.7627 189.6 33.04 189.6ZM17.872 199.616H33.072L33.04 201.472H17.744L17.872 199.616ZM60.0073 195.648C60.2846 195.648 60.5086 195.744 60.6793 195.936C60.8713 196.128 60.9673 196.363 60.9673 196.64V211.04C60.9673 211.296 60.8713 211.52 60.6793 211.712C60.4873 211.904 60.2633 212 60.0073 212C59.7299 212 59.4953 211.904 59.3033 211.712C59.1326 211.52 59.0473 211.296 59.0473 211.04V207.232L59.5913 206.976C59.5913 207.573 59.4206 208.181 59.0793 208.8C58.7593 209.419 58.3113 209.995 57.7353 210.528C57.1593 211.061 56.4766 211.499 55.6873 211.84C54.9193 212.16 54.0873 212.32 53.1913 212.32C51.7406 212.32 50.4393 211.947 49.2873 211.2C48.1566 210.453 47.2606 209.429 46.5993 208.128C45.9593 206.827 45.6393 205.365 45.6393 203.744C45.6393 202.08 45.9699 200.619 46.6313 199.36C47.2926 198.08 48.1886 197.077 49.3193 196.352C50.4499 195.627 51.7299 195.264 53.1593 195.264C54.0766 195.264 54.9299 195.424 55.7193 195.744C56.5299 196.064 57.2339 196.501 57.8313 197.056C58.4286 197.611 58.8873 198.251 59.2073 198.976C59.5486 199.68 59.7193 200.416 59.7193 201.184L59.0473 200.704V196.64C59.0473 196.363 59.1326 196.128 59.3033 195.936C59.4953 195.744 59.7299 195.648 60.0073 195.648ZM53.3513 210.528C54.4819 210.528 55.4846 210.24 56.3593 209.664C57.2339 209.067 57.9166 208.256 58.4073 207.232C58.9193 206.187 59.1753 205.024 59.1753 203.744C59.1753 202.485 58.9193 201.355 58.4073 200.352C57.9166 199.349 57.2339 198.549 56.3593 197.952C55.4846 197.355 54.4819 197.056 53.3513 197.056C52.2419 197.056 51.2393 197.344 50.3433 197.92C49.4686 198.496 48.7753 199.285 48.2633 200.288C47.7726 201.291 47.5273 202.443 47.5273 203.744C47.5273 205.024 47.7726 206.187 48.2633 207.232C48.7753 208.256 49.4686 209.067 50.3433 209.664C51.2179 210.24 52.2206 210.528 53.3513 210.528ZM74.0055 212C73.7068 212 73.4722 211.904 73.3015 211.712C73.1308 211.52 73.0455 211.296 73.0455 211.04V196.704C73.0455 196.448 73.1308 196.224 73.3015 196.032C73.4935 195.84 73.7282 195.744 74.0055 195.744C74.2828 195.744 74.5068 195.84 74.6775 196.032C74.8695 196.224 74.9655 196.448 74.9655 196.704V201.504L74.4855 201.6C74.5495 200.853 74.7308 200.117 75.0295 199.392C75.3495 198.645 75.7762 197.963 76.3095 197.344C76.8428 196.725 77.4722 196.224 78.1975 195.84C78.9442 195.456 79.7762 195.264 80.6935 195.264C81.0775 195.264 81.4508 195.349 81.8135 195.52C82.1762 195.669 82.3575 195.925 82.3575 196.288C82.3575 196.608 82.2722 196.853 82.1015 197.024C81.9308 197.195 81.7282 197.28 81.4935 197.28C81.3015 197.28 81.0882 197.227 80.8535 197.12C80.6402 197.013 80.3522 196.96 79.9895 196.96C79.3922 196.96 78.7948 197.141 78.1975 197.504C77.6002 197.845 77.0562 198.315 76.5655 198.912C76.0748 199.509 75.6802 200.181 75.3815 200.928C75.1042 201.653 74.9655 202.389 74.9655 203.136V211.04C74.9655 211.296 74.8695 211.52 74.6775 211.712C74.4855 211.904 74.2615 212 74.0055 212ZM98.7453 195.264C99.7053 195.264 100.591 195.435 101.401 195.776C102.212 196.096 102.916 196.523 103.513 197.056C104.132 197.568 104.612 198.123 104.953 198.72C105.295 199.296 105.465 199.851 105.465 200.384L104.921 199.616V196.64C104.921 196.363 105.007 196.128 105.177 195.936C105.369 195.744 105.604 195.648 105.881 195.648C106.18 195.648 106.415 195.744 106.585 195.936C106.756 196.128 106.841 196.363 106.841 196.64V210.496C106.841 212.203 106.489 213.643 105.785 214.816C105.081 215.989 104.121 216.875 102.905 217.472C101.711 218.091 100.345 218.4 98.8093 218.4C98.0626 218.4 97.2733 218.304 96.4413 218.112C95.6306 217.92 94.9266 217.675 94.3293 217.376C93.7533 217.077 93.4333 216.768 93.3693 216.448C93.1986 216.256 93.1133 216.064 93.1133 215.872C93.1346 215.701 93.2306 215.552 93.4013 215.424C93.6146 215.275 93.8386 215.253 94.0733 215.36C94.3079 215.488 94.6599 215.648 95.1293 215.84C95.3426 215.904 95.6306 216 95.9933 216.128C96.3559 216.256 96.7826 216.363 97.2733 216.448C97.7853 216.555 98.3186 216.608 98.8733 216.608C100.793 216.608 102.276 216.053 103.321 214.944C104.388 213.856 104.921 212.416 104.921 210.624V207.552L105.273 207.648C105.081 208.416 104.761 209.088 104.313 209.664C103.887 210.24 103.375 210.731 102.777 211.136C102.18 211.52 101.529 211.808 100.825 212C100.143 212.213 99.4599 212.32 98.7773 212.32C97.3053 212.32 95.9826 211.947 94.8093 211.2C93.6359 210.453 92.6973 209.44 91.9933 208.16C91.3106 206.88 90.9693 205.419 90.9693 203.776C90.9693 202.155 91.3106 200.704 91.9933 199.424C92.6973 198.123 93.6253 197.109 94.7773 196.384C95.9506 195.637 97.2733 195.264 98.7453 195.264ZM98.9693 197.056C97.7959 197.056 96.7399 197.355 95.8013 197.952C94.8839 198.528 94.1586 199.328 93.6253 200.352C93.1133 201.355 92.8573 202.496 92.8573 203.776C92.8573 205.056 93.1133 206.208 93.6253 207.232C94.1586 208.256 94.8839 209.067 95.8013 209.664C96.7399 210.24 97.7959 210.528 98.9693 210.528C100.143 210.528 101.188 210.24 102.105 209.664C103.023 209.088 103.748 208.299 104.281 207.296C104.815 206.272 105.081 205.099 105.081 203.776C105.081 202.453 104.815 201.291 104.281 200.288C103.748 199.264 103.023 198.475 102.105 197.92C101.188 197.344 100.143 197.056 98.9693 197.056ZM132.19 195.648C132.467 195.648 132.691 195.744 132.862 195.936C133.054 196.128 133.15 196.363 133.15 196.64V211.04C133.15 211.296 133.054 211.52 132.862 211.712C132.67 211.904 132.446 212 132.19 212C131.912 212 131.678 211.904 131.486 211.712C131.315 211.52 131.23 211.296 131.23 211.04V207.232L131.774 206.976C131.774 207.573 131.603 208.181 131.262 208.8C130.942 209.419 130.494 209.995 129.918 210.528C129.342 211.061 128.659 211.499 127.87 211.84C127.102 212.16 126.27 212.32 125.374 212.32C123.923 212.32 122.622 211.947 121.47 211.2C120.339 210.453 119.443 209.429 118.782 208.128C118.142 206.827 117.822 205.365 117.822 203.744C117.822 202.08 118.152 200.619 118.814 199.36C119.475 198.08 120.371 197.077 121.502 196.352C122.632 195.627 123.912 195.264 125.342 195.264C126.259 195.264 127.112 195.424 127.902 195.744C128.712 196.064 129.416 196.501 130.014 197.056C130.611 197.611 131.07 198.251 131.39 198.976C131.731 199.68 131.902 200.416 131.902 201.184L131.23 200.704V196.64C131.23 196.363 131.315 196.128 131.486 195.936C131.678 195.744 131.912 195.648 132.19 195.648ZM125.534 210.528C126.664 210.528 127.667 210.24 128.542 209.664C129.416 209.067 130.099 208.256 130.59 207.232C131.102 206.187 131.358 205.024 131.358 203.744C131.358 202.485 131.102 201.355 130.59 200.352C130.099 199.349 129.416 198.549 128.542 197.952C127.667 197.355 126.664 197.056 125.534 197.056C124.424 197.056 123.422 197.344 122.526 197.92C121.651 198.496 120.958 199.285 120.446 200.288C119.955 201.291 119.71 202.443 119.71 203.744C119.71 205.024 119.955 206.187 120.446 207.232C120.958 208.256 121.651 209.067 122.526 209.664C123.4 210.24 124.403 210.528 125.534 210.528ZM162.522 189.6C162.778 189.6 163.002 189.696 163.194 189.888C163.407 190.08 163.514 190.315 163.514 190.592V211.008C163.493 211.285 163.375 211.52 163.162 211.712C162.97 211.904 162.746 212 162.49 212C162.191 212 161.946 211.904 161.754 211.712C161.583 211.52 161.498 211.285 161.498 211.008V190.592C161.498 190.315 161.594 190.08 161.786 189.888C161.978 189.696 162.223 189.6 162.522 189.6ZM177.53 189.6C177.829 189.6 178.063 189.696 178.234 189.888C178.426 190.08 178.522 190.315 178.522 190.592V211.008C178.501 211.285 178.394 211.52 178.202 211.712C178.031 211.904 177.797 212 177.498 212C177.221 212 176.986 211.904 176.794 211.712C176.602 211.52 176.506 211.285 176.506 211.008V190.592C176.506 190.315 176.602 190.08 176.794 189.888C177.007 189.696 177.253 189.6 177.53 189.6ZM162.362 199.616H177.562L177.53 201.472H162.234L162.362 199.616ZM198.481 212.32C196.839 212.32 195.388 211.968 194.129 211.264C192.871 210.56 191.889 209.579 191.185 208.32C190.481 207.061 190.129 205.589 190.129 203.904C190.129 202.091 190.481 200.544 191.185 199.264C191.911 197.984 192.839 197.003 193.969 196.32C195.121 195.616 196.337 195.264 197.617 195.264C198.556 195.264 199.463 195.435 200.337 195.776C201.233 196.096 202.023 196.587 202.705 197.248C203.409 197.888 203.964 198.677 204.369 199.616C204.796 200.555 205.031 201.643 205.073 202.88C205.052 203.136 204.945 203.36 204.753 203.552C204.561 203.723 204.337 203.808 204.081 203.808H191.249L190.865 202.08H203.473L203.057 202.464V201.824C202.972 200.821 202.652 199.968 202.097 199.264C201.543 198.56 200.871 198.027 200.081 197.664C199.292 197.301 198.471 197.12 197.617 197.12C196.977 197.12 196.316 197.248 195.633 197.504C194.972 197.76 194.364 198.165 193.809 198.72C193.276 199.253 192.839 199.947 192.497 200.8C192.156 201.632 191.985 202.624 191.985 203.776C191.985 205.035 192.241 206.176 192.753 207.2C193.265 208.224 194.001 209.035 194.961 209.632C195.943 210.229 197.105 210.528 198.449 210.528C199.196 210.528 199.868 210.421 200.465 210.208C201.063 209.995 201.585 209.717 202.033 209.376C202.481 209.013 202.855 208.64 203.153 208.256C203.388 208.064 203.623 207.968 203.857 207.968C204.071 207.968 204.252 208.053 204.401 208.224C204.572 208.395 204.657 208.587 204.657 208.8C204.657 209.056 204.551 209.28 204.337 209.472C203.697 210.24 202.865 210.912 201.841 211.488C200.817 212.043 199.697 212.32 198.481 212.32ZM223.583 195.52C224.906 195.52 226.036 195.872 226.975 196.576C227.914 197.259 228.554 198.283 228.895 199.648L228.447 199.776L228.639 199.2C228.916 198.56 229.375 197.963 230.015 197.408C230.676 196.832 231.423 196.373 232.255 196.032C233.087 195.691 233.93 195.52 234.783 195.52C236.127 195.52 237.204 195.808 238.015 196.384C238.847 196.96 239.444 197.739 239.807 198.72C240.191 199.68 240.383 200.768 240.383 201.984V211.04C240.383 211.296 240.287 211.52 240.095 211.712C239.924 211.904 239.7 212 239.423 212C239.146 212 238.911 211.904 238.719 211.712C238.548 211.52 238.463 211.296 238.463 211.04V202.08C238.463 201.205 238.324 200.405 238.047 199.68C237.77 198.955 237.332 198.379 236.735 197.952C236.138 197.525 235.338 197.312 234.335 197.312C233.46 197.312 232.618 197.525 231.807 197.952C231.018 198.379 230.367 198.955 229.855 199.68C229.364 200.405 229.119 201.205 229.119 202.08V211.04C229.119 211.296 229.023 211.52 228.831 211.712C228.66 211.904 228.436 212 228.159 212C227.882 212 227.647 211.904 227.455 211.712C227.284 211.52 227.199 211.296 227.199 211.04V201.984C227.199 201.109 227.071 200.32 226.815 199.616C226.559 198.912 226.143 198.357 225.567 197.952C224.991 197.525 224.212 197.312 223.231 197.312C222.356 197.312 221.524 197.525 220.735 197.952C219.967 198.357 219.338 198.912 218.847 199.616C218.378 200.32 218.143 201.109 218.143 201.984V211.04C218.143 211.296 218.047 211.52 217.855 211.712C217.663 211.904 217.439 212 217.183 212C216.884 212 216.65 211.904 216.479 211.712C216.308 211.52 216.223 211.296 216.223 211.04V196.704C216.223 196.448 216.308 196.224 216.479 196.032C216.671 195.84 216.906 195.744 217.183 195.744C217.46 195.744 217.684 195.84 217.855 196.032C218.047 196.224 218.143 196.448 218.143 196.704V199.68L217.279 200.864C217.343 200.224 217.546 199.584 217.887 198.944C218.25 198.304 218.719 197.728 219.295 197.216C219.871 196.704 220.522 196.299 221.247 196C221.994 195.68 222.772 195.52 223.583 195.52ZM265.859 195.648C266.136 195.648 266.36 195.744 266.531 195.936C266.723 196.128 266.819 196.363 266.819 196.64V211.04C266.819 211.296 266.723 211.52 266.531 211.712C266.339 211.904 266.115 212 265.859 212C265.581 212 265.347 211.904 265.155 211.712C264.984 211.52 264.899 211.296 264.899 211.04V207.232L265.443 206.976C265.443 207.573 265.272 208.181 264.931 208.8C264.611 209.419 264.163 209.995 263.587 210.528C263.011 211.061 262.328 211.499 261.539 211.84C260.771 212.16 259.939 212.32 259.043 212.32C257.592 212.32 256.291 211.947 255.139 211.2C254.008 210.453 253.112 209.429 252.451 208.128C251.811 206.827 251.491 205.365 251.491 203.744C251.491 202.08 251.821 200.619 252.483 199.36C253.144 198.08 254.04 197.077 255.171 196.352C256.301 195.627 257.581 195.264 259.011 195.264C259.928 195.264 260.781 195.424 261.571 195.744C262.381 196.064 263.085 196.501 263.683 197.056C264.28 197.611 264.739 198.251 265.059 198.976C265.4 199.68 265.571 200.416 265.571 201.184L264.899 200.704V196.64C264.899 196.363 264.984 196.128 265.155 195.936C265.347 195.744 265.581 195.648 265.859 195.648ZM259.203 210.528C260.333 210.528 261.336 210.24 262.211 209.664C263.085 209.067 263.768 208.256 264.259 207.232C264.771 206.187 265.027 205.024 265.027 203.744C265.027 202.485 264.771 201.355 264.259 200.352C263.768 199.349 263.085 198.549 262.211 197.952C261.336 197.355 260.333 197.056 259.203 197.056C258.093 197.056 257.091 197.344 256.195 197.92C255.32 198.496 254.627 199.285 254.115 200.288C253.624 201.291 253.379 202.443 253.379 203.744C253.379 205.024 253.624 206.187 254.115 207.232C254.627 208.256 255.32 209.067 256.195 209.664C257.069 210.24 258.072 210.528 259.203 210.528ZM277.841 195.712H285.297C285.553 195.712 285.766 195.808 285.937 196C286.107 196.171 286.193 196.384 286.193 196.64C286.193 196.875 286.107 197.077 285.937 197.248C285.766 197.419 285.553 197.504 285.297 197.504H277.841C277.585 197.504 277.361 197.419 277.169 197.248C276.998 197.056 276.913 196.843 276.913 196.608C276.913 196.352 276.998 196.139 277.169 195.968C277.361 195.797 277.585 195.712 277.841 195.712ZM281.137 191.2C281.414 191.2 281.638 191.296 281.809 191.488C282.001 191.68 282.097 191.904 282.097 192.16V208.224C282.097 208.821 282.171 209.269 282.321 209.568C282.491 209.867 282.705 210.069 282.961 210.176C283.217 210.261 283.473 210.304 283.729 210.304C283.899 210.304 284.049 210.283 284.177 210.24C284.326 210.176 284.486 210.144 284.657 210.144C284.849 210.144 285.009 210.219 285.137 210.368C285.286 210.517 285.361 210.709 285.361 210.944C285.361 211.243 285.19 211.499 284.849 211.712C284.507 211.904 284.102 212 283.633 212C283.441 212 283.153 211.989 282.769 211.968C282.385 211.925 281.99 211.808 281.585 211.616C281.179 211.403 280.838 211.04 280.561 210.528C280.305 210.016 280.177 209.28 280.177 208.32V192.16C280.177 191.904 280.262 191.68 280.433 191.488C280.625 191.296 280.859 191.2 281.137 191.2ZM329.051 212.128C328.773 212.128 328.539 212.011 328.347 211.776L319.259 200.352L320.763 198.848L329.915 210.432C330.064 210.645 330.139 210.869 330.139 211.104C330.139 211.445 330.011 211.701 329.755 211.872C329.52 212.043 329.285 212.128 329.051 212.128ZM328.699 189.664C328.955 189.664 329.168 189.76 329.339 189.952C329.531 190.144 329.627 190.357 329.627 190.592C329.627 190.848 329.531 191.072 329.339 191.264L314.811 204.864L314.555 202.688L327.995 189.984C328.208 189.771 328.443 189.664 328.699 189.664ZM314.043 212C313.744 212 313.499 211.904 313.307 211.712C313.136 211.52 313.051 211.285 313.051 211.008V190.592C313.051 190.315 313.147 190.08 313.339 189.888C313.531 189.696 313.776 189.6 314.075 189.6C314.352 189.6 314.587 189.696 314.779 189.888C314.971 190.08 315.067 190.315 315.067 190.592V211.008C315.045 211.285 314.939 211.52 314.747 211.712C314.555 211.904 314.32 212 314.043 212ZM353.053 195.744C353.331 195.744 353.555 195.84 353.725 196.032C353.917 196.224 354.013 196.448 354.013 196.704V205.728C354.013 207.84 353.416 209.451 352.221 210.56C351.027 211.669 349.416 212.224 347.389 212.224C345.384 212.224 343.784 211.669 342.589 210.56C341.416 209.451 340.829 207.84 340.829 205.728V196.704C340.829 196.448 340.915 196.224 341.085 196.032C341.277 195.84 341.512 195.744 341.789 195.744C342.067 195.744 342.291 195.84 342.461 196.032C342.653 196.224 342.749 196.448 342.749 196.704V205.728C342.749 207.264 343.155 208.437 343.965 209.248C344.797 210.037 345.939 210.432 347.389 210.432C348.861 210.432 350.013 210.037 350.845 209.248C351.677 208.437 352.093 207.264 352.093 205.728V196.704C352.093 196.448 352.179 196.224 352.349 196.032C352.52 195.84 352.755 195.744 353.053 195.744ZM379.496 195.648C379.773 195.648 379.997 195.744 380.168 195.936C380.36 196.128 380.456 196.363 380.456 196.64V211.04C380.456 211.296 380.36 211.52 380.168 211.712C379.976 211.904 379.752 212 379.496 212C379.219 212 378.984 211.904 378.792 211.712C378.621 211.52 378.536 211.296 378.536 211.04V207.232L379.08 206.976C379.08 207.573 378.909 208.181 378.568 208.8C378.248 209.419 377.8 209.995 377.224 210.528C376.648 211.061 375.965 211.499 375.176 211.84C374.408 212.16 373.576 212.32 372.68 212.32C371.229 212.32 369.928 211.947 368.776 211.2C367.645 210.453 366.749 209.429 366.088 208.128C365.448 206.827 365.128 205.365 365.128 203.744C365.128 202.08 365.459 200.619 366.12 199.36C366.781 198.08 367.677 197.077 368.808 196.352C369.939 195.627 371.219 195.264 372.648 195.264C373.565 195.264 374.419 195.424 375.208 195.744C376.019 196.064 376.723 196.501 377.32 197.056C377.917 197.611 378.376 198.251 378.696 198.976C379.037 199.68 379.208 200.416 379.208 201.184L378.536 200.704V196.64C378.536 196.363 378.621 196.128 378.792 195.936C378.984 195.744 379.219 195.648 379.496 195.648ZM372.84 210.528C373.971 210.528 374.973 210.24 375.848 209.664C376.723 209.067 377.405 208.256 377.896 207.232C378.408 206.187 378.664 205.024 378.664 203.744C378.664 202.485 378.408 201.355 377.896 200.352C377.405 199.349 376.723 198.549 375.848 197.952C374.973 197.355 373.971 197.056 372.84 197.056C371.731 197.056 370.728 197.344 369.832 197.92C368.957 198.496 368.264 199.285 367.752 200.288C367.261 201.291 367.016 202.443 367.016 203.744C367.016 205.024 367.261 206.187 367.752 207.232C368.264 208.256 368.957 209.067 369.832 209.664C370.707 210.24 371.709 210.528 372.84 210.528ZM394.646 211.04C394.646 211.296 394.55 211.52 394.358 211.712C394.166 211.904 393.942 212 393.686 212C393.409 212 393.174 211.904 392.982 211.712C392.812 211.52 392.726 211.296 392.726 211.04V189.28C392.726 189.024 392.822 188.8 393.014 188.608C393.206 188.416 393.43 188.32 393.686 188.32C393.964 188.32 394.188 188.416 394.358 188.608C394.55 188.8 394.646 189.024 394.646 189.28V211.04ZM408.805 211.04C408.805 211.296 408.709 211.52 408.517 211.712C408.325 211.904 408.101 212 407.845 212C407.568 212 407.333 211.904 407.141 211.712C406.971 211.52 406.885 211.296 406.885 211.04V196.32C406.885 196.064 406.971 195.84 407.141 195.648C407.333 195.456 407.568 195.36 407.845 195.36C408.123 195.36 408.347 195.456 408.517 195.648C408.709 195.84 408.805 196.064 408.805 196.32V211.04ZM407.845 193.216C407.397 193.216 407.056 193.12 406.821 192.928C406.608 192.715 406.501 192.416 406.501 192.032V191.712C406.501 191.328 406.619 191.04 406.853 190.848C407.109 190.635 407.451 190.528 407.877 190.528C408.283 190.528 408.592 190.635 408.805 190.848C409.04 191.04 409.157 191.328 409.157 191.712V192.032C409.157 192.416 409.04 192.715 408.805 192.928C408.592 193.12 408.272 193.216 407.845 193.216ZM419.777 195.712H427.233C427.489 195.712 427.702 195.808 427.873 196C428.044 196.171 428.129 196.384 428.129 196.64C428.129 196.875 428.044 197.077 427.873 197.248C427.702 197.419 427.489 197.504 427.233 197.504H419.777C419.521 197.504 419.297 197.419 419.105 197.248C418.934 197.056 418.849 196.843 418.849 196.608C418.849 196.352 418.934 196.139 419.105 195.968C419.297 195.797 419.521 195.712 419.777 195.712ZM423.073 191.2C423.35 191.2 423.574 191.296 423.745 191.488C423.937 191.68 424.033 191.904 424.033 192.16V208.224C424.033 208.821 424.108 209.269 424.257 209.568C424.428 209.867 424.641 210.069 424.897 210.176C425.153 210.261 425.409 210.304 425.665 210.304C425.836 210.304 425.985 210.283 426.113 210.24C426.262 210.176 426.422 210.144 426.593 210.144C426.785 210.144 426.945 210.219 427.073 210.368C427.222 210.517 427.297 210.709 427.297 210.944C427.297 211.243 427.126 211.499 426.785 211.712C426.444 211.904 426.038 212 425.569 212C425.377 212 425.089 211.989 424.705 211.968C424.321 211.925 423.926 211.808 423.521 211.616C423.116 211.403 422.774 211.04 422.497 210.528C422.241 210.016 422.113 209.28 422.113 208.32V192.16C422.113 191.904 422.198 191.68 422.369 191.488C422.561 191.296 422.796 191.2 423.073 191.2ZM452.125 195.648C452.402 195.648 452.626 195.744 452.797 195.936C452.989 196.128 453.085 196.363 453.085 196.64V211.04C453.085 211.296 452.989 211.52 452.797 211.712C452.605 211.904 452.381 212 452.125 212C451.847 212 451.613 211.904 451.421 211.712C451.25 211.52 451.165 211.296 451.165 211.04V207.232L451.709 206.976C451.709 207.573 451.538 208.181 451.197 208.8C450.877 209.419 450.429 209.995 449.853 210.528C449.277 211.061 448.594 211.499 447.805 211.84C447.037 212.16 446.205 212.32 445.309 212.32C443.858 212.32 442.557 211.947 441.405 211.2C440.274 210.453 439.378 209.429 438.717 208.128C438.077 206.827 437.757 205.365 437.757 203.744C437.757 202.08 438.087 200.619 438.749 199.36C439.41 198.08 440.306 197.077 441.437 196.352C442.567 195.627 443.847 195.264 445.277 195.264C446.194 195.264 447.047 195.424 447.837 195.744C448.647 196.064 449.351 196.501 449.949 197.056C450.546 197.611 451.005 198.251 451.325 198.976C451.666 199.68 451.837 200.416 451.837 201.184L451.165 200.704V196.64C451.165 196.363 451.25 196.128 451.421 195.936C451.613 195.744 451.847 195.648 452.125 195.648ZM445.469 210.528C446.599 210.528 447.602 210.24 448.477 209.664C449.351 209.067 450.034 208.256 450.525 207.232C451.037 206.187 451.293 205.024 451.293 203.744C451.293 202.485 451.037 201.355 450.525 200.352C450.034 199.349 449.351 198.549 448.477 197.952C447.602 197.355 446.599 197.056 445.469 197.056C444.359 197.056 443.357 197.344 442.461 197.92C441.586 198.496 440.893 199.285 440.381 200.288C439.89 201.291 439.645 202.443 439.645 203.744C439.645 205.024 439.89 206.187 440.381 207.232C440.893 208.256 441.586 209.067 442.461 209.664C443.335 210.24 444.338 210.528 445.469 210.528ZM464.235 209.408C464.064 209.152 463.979 208.907 463.979 208.672C464 208.416 464.139 208.213 464.395 208.064C464.566 207.915 464.758 207.851 464.971 207.872C465.206 207.893 465.419 208 465.611 208.192C466.187 208.939 466.88 209.547 467.691 210.016C468.523 210.464 469.504 210.688 470.635 210.688C471.232 210.688 471.819 210.592 472.395 210.4C472.992 210.187 473.483 209.877 473.867 209.472C474.251 209.045 474.443 208.512 474.443 207.872C474.443 207.211 474.251 206.677 473.867 206.272C473.483 205.867 472.982 205.547 472.363 205.312C471.766 205.077 471.126 204.875 470.443 204.704C469.718 204.512 469.014 204.299 468.331 204.064C467.648 203.808 467.04 203.499 466.507 203.136C465.995 202.752 465.579 202.293 465.259 201.76C464.939 201.227 464.779 200.576 464.779 199.808C464.779 198.912 465.024 198.123 465.515 197.44C466.006 196.757 466.667 196.224 467.499 195.84C468.352 195.456 469.312 195.264 470.379 195.264C470.912 195.264 471.488 195.339 472.107 195.488C472.726 195.616 473.334 195.84 473.931 196.16C474.528 196.48 475.062 196.917 475.531 197.472C475.723 197.664 475.819 197.888 475.819 198.144C475.819 198.379 475.712 198.592 475.499 198.784C475.328 198.912 475.126 198.976 474.891 198.976C474.678 198.976 474.496 198.891 474.347 198.72C473.835 198.144 473.227 197.707 472.523 197.408C471.819 197.109 471.062 196.96 470.251 196.96C469.632 196.96 469.046 197.067 468.491 197.28C467.958 197.472 467.51 197.771 467.147 198.176C466.784 198.581 466.603 199.115 466.603 199.776C466.646 200.395 466.859 200.896 467.243 201.28C467.648 201.664 468.171 201.984 468.811 202.24C469.472 202.496 470.208 202.731 471.019 202.944C471.702 203.115 472.352 203.317 472.971 203.552C473.611 203.787 474.166 204.085 474.635 204.448C475.126 204.789 475.51 205.227 475.787 205.76C476.086 206.293 476.235 206.965 476.235 207.776C476.235 208.715 475.968 209.525 475.435 210.208C474.923 210.891 474.23 211.413 473.355 211.776C472.48 212.139 471.51 212.32 470.443 212.32C469.291 212.32 468.171 212.096 467.083 211.648C466.016 211.2 465.067 210.453 464.235 209.408ZM504.497 189.6C504.753 189.6 504.977 189.696 505.169 189.888C505.382 190.08 505.489 190.315 505.489 190.592V211.008C505.468 211.285 505.35 211.52 505.137 211.712C504.945 211.904 504.721 212 504.465 212C504.166 212 503.921 211.904 503.729 211.712C503.558 211.52 503.473 211.285 503.473 211.008V190.592C503.473 190.315 503.569 190.08 503.761 189.888C503.953 189.696 504.198 189.6 504.497 189.6ZM519.505 189.6C519.804 189.6 520.038 189.696 520.209 189.888C520.401 190.08 520.497 190.315 520.497 190.592V211.008C520.476 211.285 520.369 211.52 520.177 211.712C520.006 211.904 519.772 212 519.473 212C519.196 212 518.961 211.904 518.769 211.712C518.577 211.52 518.481 211.285 518.481 211.008V190.592C518.481 190.315 518.577 190.08 518.769 189.888C518.982 189.696 519.228 189.6 519.505 189.6ZM504.337 199.616H519.537L519.505 201.472H504.209L504.337 199.616ZM540.456 212.32C538.814 212.32 537.363 211.968 536.104 211.264C534.846 210.56 533.864 209.579 533.16 208.32C532.456 207.061 532.104 205.589 532.104 203.904C532.104 202.091 532.456 200.544 533.16 199.264C533.886 197.984 534.814 197.003 535.944 196.32C537.096 195.616 538.312 195.264 539.592 195.264C540.531 195.264 541.438 195.435 542.312 195.776C543.208 196.096 543.998 196.587 544.68 197.248C545.384 197.888 545.939 198.677 546.344 199.616C546.771 200.555 547.006 201.643 547.048 202.88C547.027 203.136 546.92 203.36 546.728 203.552C546.536 203.723 546.312 203.808 546.056 203.808H533.224L532.84 202.08H545.448L545.032 202.464V201.824C544.947 200.821 544.627 199.968 544.072 199.264C543.518 198.56 542.846 198.027 542.056 197.664C541.267 197.301 540.446 197.12 539.592 197.12C538.952 197.12 538.291 197.248 537.608 197.504C536.947 197.76 536.339 198.165 535.784 198.72C535.251 199.253 534.814 199.947 534.472 200.8C534.131 201.632 533.96 202.624 533.96 203.776C533.96 205.035 534.216 206.176 534.728 207.2C535.24 208.224 535.976 209.035 536.936 209.632C537.918 210.229 539.08 210.528 540.424 210.528C541.171 210.528 541.843 210.421 542.44 210.208C543.038 209.995 543.56 209.717 544.008 209.376C544.456 209.013 544.83 208.64 545.128 208.256C545.363 208.064 545.598 207.968 545.832 207.968C546.046 207.968 546.227 208.053 546.376 208.224C546.547 208.395 546.632 208.587 546.632 208.8C546.632 209.056 546.526 209.28 546.312 209.472C545.672 210.24 544.84 210.912 543.816 211.488C542.792 212.043 541.672 212.32 540.456 212.32ZM565.974 195.264C567.425 195.264 568.705 195.627 569.814 196.352C570.945 197.077 571.841 198.08 572.502 199.36C573.163 200.619 573.494 202.08 573.494 203.744C573.494 205.365 573.163 206.827 572.502 208.128C571.841 209.429 570.945 210.453 569.814 211.2C568.683 211.947 567.414 212.32 566.006 212.32C565.259 212.32 564.545 212.203 563.862 211.968C563.201 211.733 562.593 211.424 562.038 211.04C561.483 210.635 560.993 210.165 560.566 209.632C560.139 209.099 559.798 208.523 559.542 207.904L560.118 207.488V211.104C560.118 211.381 560.022 211.616 559.83 211.808C559.659 211.979 559.435 212.064 559.158 212.064C558.881 212.064 558.646 211.979 558.454 211.808C558.283 211.616 558.198 211.381 558.198 211.104V189.312C558.198 189.035 558.283 188.811 558.454 188.64C558.625 188.448 558.859 188.352 559.158 188.352C559.435 188.352 559.659 188.448 559.83 188.64C560.022 188.811 560.118 189.035 560.118 189.312V200.032L559.67 199.776C559.883 199.115 560.193 198.517 560.598 197.984C561.025 197.429 561.515 196.949 562.07 196.544C562.625 196.139 563.233 195.829 563.894 195.616C564.555 195.381 565.249 195.264 565.974 195.264ZM565.814 197.056C564.662 197.056 563.649 197.344 562.774 197.92C561.899 198.496 561.206 199.285 560.694 200.288C560.203 201.291 559.958 202.443 559.958 203.744C559.958 205.024 560.203 206.187 560.694 207.232C561.206 208.256 561.899 209.067 562.774 209.664C563.649 210.24 564.662 210.528 565.814 210.528C566.945 210.528 567.937 210.229 568.79 209.632C569.665 209.035 570.358 208.224 570.87 207.2C571.382 206.155 571.638 205.003 571.638 203.744C571.638 202.443 571.382 201.291 570.87 200.288C570.358 199.285 569.665 198.496 568.79 197.92C567.937 197.344 566.945 197.056 565.814 197.056ZM598.052 195.648C598.33 195.648 598.554 195.744 598.724 195.936C598.916 196.128 599.012 196.363 599.012 196.64V211.04C599.012 211.296 598.916 211.52 598.724 211.712C598.532 211.904 598.308 212 598.052 212C597.775 212 597.54 211.904 597.348 211.712C597.178 211.52 597.092 211.296 597.092 211.04V207.232L597.636 206.976C597.636 207.573 597.466 208.181 597.124 208.8C596.804 209.419 596.356 209.995 595.78 210.528C595.204 211.061 594.522 211.499 593.732 211.84C592.964 212.16 592.132 212.32 591.236 212.32C589.786 212.32 588.484 211.947 587.332 211.2C586.202 210.453 585.306 209.429 584.644 208.128C584.004 206.827 583.684 205.365 583.684 203.744C583.684 202.08 584.015 200.619 584.676 199.36C585.338 198.08 586.234 197.077 587.364 196.352C588.495 195.627 589.775 195.264 591.204 195.264C592.122 195.264 592.975 195.424 593.764 195.744C594.575 196.064 595.279 196.501 595.876 197.056C596.474 197.611 596.932 198.251 597.252 198.976C597.594 199.68 597.764 200.416 597.764 201.184L597.092 200.704V196.64C597.092 196.363 597.178 196.128 597.348 195.936C597.54 195.744 597.775 195.648 598.052 195.648ZM591.396 210.528C592.527 210.528 593.53 210.24 594.404 209.664C595.279 209.067 595.962 208.256 596.452 207.232C596.964 206.187 597.22 205.024 597.22 203.744C597.22 202.485 596.964 201.355 596.452 200.352C595.962 199.349 595.279 198.549 594.404 197.952C593.53 197.355 592.527 197.056 591.396 197.056C590.287 197.056 589.284 197.344 588.388 197.92C587.514 198.496 586.82 199.285 586.308 200.288C585.818 201.291 585.572 202.443 585.572 203.744C585.572 205.024 585.818 206.187 586.308 207.232C586.82 208.256 587.514 209.067 588.388 209.664C589.263 210.24 590.266 210.528 591.396 210.528ZM610.035 195.712H617.491C617.747 195.712 617.96 195.808 618.131 196C618.301 196.171 618.387 196.384 618.387 196.64C618.387 196.875 618.301 197.077 618.131 197.248C617.96 197.419 617.747 197.504 617.491 197.504H610.035C609.779 197.504 609.555 197.419 609.363 197.248C609.192 197.056 609.107 196.843 609.107 196.608C609.107 196.352 609.192 196.139 609.363 195.968C609.555 195.797 609.779 195.712 610.035 195.712ZM613.331 191.2C613.608 191.2 613.832 191.296 614.003 191.488C614.195 191.68 614.291 191.904 614.291 192.16V208.224C614.291 208.821 614.365 209.269 614.515 209.568C614.685 209.867 614.899 210.069 615.155 210.176C615.411 210.261 615.667 210.304 615.923 210.304C616.093 210.304 616.243 210.283 616.371 210.24C616.52 210.176 616.68 210.144 616.851 210.144C617.043 210.144 617.203 210.219 617.331 210.368C617.48 210.517 617.555 210.709 617.555 210.944C617.555 211.243 617.384 211.499 617.043 211.712C616.701 211.904 616.296 212 615.827 212C615.635 212 615.347 211.989 614.963 211.968C614.579 211.925 614.184 211.808 613.779 211.616C613.373 211.403 613.032 211.04 612.755 210.528C612.499 210.016 612.371 209.28 612.371 208.32V192.16C612.371 191.904 612.456 191.68 612.627 191.488C612.819 191.296 613.053 191.2 613.331 191.2Z" fill="#808D95"/>
</svg>
