<svg width="640" height="640" viewBox="0 0 640 640" fill="none" xmlns="http://www.w3.org/2000/svg">
<g clip-path="url(#clip0_2_4)">
<path d="M632.052 83.3569C562.699 30.8562 455.943 -0.5 346.461 -0.5C211.082 -0.5 100.758 46.7146 43.8324 129.05C17.0934 167.694 2.30067 213.507 -0.144731 265.127C-2.30951 311.1 5.42758 361.959 22.826 416.662C82.2373 238.696 248.204 99.3754 439.547 99.3754C439.547 99.3754 260.511 146.43 147.942 292.238C122.257 325.301 101.64 361.999 86.7673 401.124C54.9748 476.757 38.6197 557.97 38.661 640H118.838C118.838 640 106.651 563.512 127.818 475.57C159.121 480.032 190.688 482.4 222.307 482.658C296.03 482.658 348.425 466.72 387.271 432.52C422.068 401.885 441.271 360.677 461.595 317.107C492.624 250.51 527.782 175.063 629.887 116.796C632.768 115.154 635.196 112.824 636.954 110.015C638.711 107.205 639.743 104.004 639.958 100.698C640.173 97.3923 639.563 94.0848 638.183 91.0723C636.803 88.0597 634.696 85.4362 632.052 83.437V83.3569Z" fill="black"/>
<path d="M632.052 83.3569C562.699 30.8562 455.943 -0.5 346.461 -0.5C211.082 -0.5 100.758 46.7146 43.8324 129.05C17.0934 167.694 2.30067 213.507 -0.144731 265.127C-2.30951 311.1 5.42758 361.959 22.826 416.662C82.2373 238.696 248.204 99.3754 439.547 99.3754C439.547 99.3754 260.511 146.43 147.942 292.238C122.257 325.301 101.64 361.999 86.7673 401.124C54.9748 476.757 38.6197 557.97 38.661 640H118.838C118.838 640 106.651 563.512 127.818 475.57C159.121 480.032 190.688 482.4 222.307 482.658C296.03 482.658 348.425 466.72 387.271 432.52C422.068 401.885 441.271 360.677 461.595 317.107C492.624 250.51 527.782 175.063 629.887 116.796C632.768 115.154 635.196 112.824 636.954 110.015C638.711 107.205 639.743 104.004 639.958 100.698C640.173 97.3923 639.563 94.0848 638.183 91.0723C636.803 88.0597 634.696 85.4362 632.052 83.437V83.3569Z" fill="url(#paint0_linear_2_4)"/>
</g>
<defs>
<linearGradient id="paint0_linear_2_4" x1="-189.848" y1="-222.673" x2="853.367" y2="826.946" gradientUnits="userSpaceOnUse">
<stop stop-color="#1CBBFF"/>
<stop offset="1" stop-color="#2192E3"/>
</linearGradient>
<clipPath id="clip0_2_4">
<rect width="640" height="640" fill="white"/>
</clipPath>
</defs>
</svg>
