<svg width="720" height="720" viewBox="0 0 720 720" fill="none" xmlns="http://www.w3.org/2000/svg">
<rect width="720" height="720" fill="url(#paint0_linear_9_2)"/>
<g clip-path="url(#clip0_9_2)">
<path d="M518.952 239.46C483.625 212.717 429.246 196.745 373.479 196.745C304.52 196.745 248.324 220.795 219.327 262.735C205.707 282.419 198.172 305.755 196.926 332.049C195.824 355.467 199.765 381.373 208.627 409.237C238.89 318.586 323.429 247.619 420.894 247.619C420.894 247.619 329.698 271.588 272.358 345.859C259.275 362.7 248.773 381.393 241.197 401.323C225.003 439.848 216.672 481.216 216.693 523H257.533C257.533 523 251.326 484.039 262.107 439.244C278.052 441.516 294.132 442.723 310.238 442.854C347.79 442.854 374.479 434.735 394.266 417.315C411.991 401.71 421.772 380.72 432.125 358.526C447.93 324.604 465.839 286.173 517.849 256.493C519.316 255.657 520.553 254.47 521.448 253.039C522.344 251.608 522.869 249.977 522.979 248.293C523.088 246.609 522.777 244.925 522.074 243.39C521.372 241.855 520.299 240.519 518.952 239.501V239.46Z" fill="black"/>
<path d="M518.952 239.46C483.625 212.717 429.246 196.745 373.479 196.745C304.52 196.745 248.324 220.795 219.327 262.735C205.707 282.419 198.172 305.755 196.926 332.049C195.824 355.467 199.765 381.373 208.627 409.237C238.89 318.586 323.429 247.619 420.894 247.619C420.894 247.619 329.698 271.588 272.358 345.859C259.275 362.7 248.773 381.393 241.197 401.323C225.003 439.848 216.672 481.216 216.693 523H257.533C257.533 523 251.326 484.039 262.107 439.244C278.052 441.516 294.132 442.723 310.238 442.854C347.79 442.854 374.479 434.735 394.266 417.315C411.991 401.71 421.772 380.72 432.125 358.526C447.93 324.604 465.839 286.173 517.849 256.493C519.316 255.657 520.553 254.47 521.448 253.039C522.344 251.608 522.869 249.977 522.979 248.293C523.088 246.609 522.777 244.925 522.074 243.39C521.372 241.855 520.299 240.519 518.952 239.501V239.46Z" fill="white"/>
</g>
<defs>
<linearGradient id="paint0_linear_9_2" x1="360" y1="0" x2="360" y2="720" gradientUnits="userSpaceOnUse">
<stop stop-color="#2CB54A"/>
<stop offset="1" stop-color="#1F9C62"/>
</linearGradient>
<clipPath id="clip0_9_2">
<rect width="326" height="326" fill="white" transform="translate(197 197)"/>
</clipPath>
</defs>
</svg>
